# xmcd CD database file
#
# Track frame offsets:
#	182
#	13515
#	25100
#	30532
#	46462
#	62325
#	68142
#	88567
#	102670
#	111792
#	128330
#	133535
#	156315
#	170347
#	196952
#	207935
#	227207
#	239177
#
# Disc length: 3390 seconds
#
# Revision: 0
# Processed by: cddbd v1.5.2PL0 Copyright (c) Steve Scherf et al.
# Submitted via: CDex 1.51
#
DISCID=f00d3c12
DTITLE=Glenn Miller - 1942 Chesterfield Shows
DYEAR=1942
DGENRE=Jazz
TTITLE0=Something To Remember You By
TTITLE1=One Dozen Roses
TTITLE2=Radio Phono Giveaway
TTITLE3=Moonlight Cocktail (w/ Ray Eberle)
TTITLE4=Oh! So Good
TTITLE5=Glenn Miller Interview Ray Eberle
TTITLE6=Moonlight Cocktail (w/ Skip Nelson)
TTITLE7=Jersey Bounce
TTITLE8=I Left My Heart At The Stage Door Canteen
TTITLE9=Keep 'em Flying
TTITLE10=Glenn Miller Interviews Tex Beneke
TTITLE11=Sweet Eloise
TTITLE12=Jersey Bounce
TTITLE13=Kalamazoo
TTITLE14=At Last
TTITLE15=Juke Box Saturday Night
TTITLE16=Sleepy Lagoon
TTITLE17=Caribbean Clipper
EXTD=YEAR: 1942
EXTT0=
EXTT1=
EXTT2=
EXTT3=
EXTT4=
EXTT5=
EXTT6=
EXTT7=
EXTT8=
EXTT9=
EXTT10=
EXTT11=
EXTT12=
EXTT13=
EXTT14=
EXTT15=
EXTT16=
EXTT17=
PLAYORDER=
